<svg id="Layer_1" data-name="Layer 1" xmlns="http://www.w3.org/2000/svg" viewBox="0 0 147.75 35.99"><defs><style>.cls-1{fill:#231f20;}.cls-2{fill:#ad2241;}</style></defs><title>PaulOoiDesignWordmark</title><path class="cls-1" d="M12.15,17.57a3.71,3.71,0,0,0,1,2.65,3.33,3.33,0,0,0,2.5,1.1,3.61,3.61,0,0,0,3.6-3.62,3.68,3.68,0,0,0-1-2.67A3.45,3.45,0,0,0,15.67,14,3.35,3.35,0,0,0,13.22,15a3.5,3.5,0,0,0-1.06,2.53Zm.06,4V27H10.32V17.8a5.36,5.36,0,0,1,5.43-5.64,5.37,5.37,0,0,1,5.51,5.53,5.63,5.63,0,0,1-.39,2.09,5.41,5.41,0,0,1-1.12,1.77A5.18,5.18,0,0,1,18,22.77a5.49,5.49,0,0,1-2.14.4,5,5,0,0,1-2-.39,5.22,5.22,0,0,1-1.68-1.16Z"/><path class="cls-1" d="M24.58,17.57a3.67,3.67,0,0,0,1.05,2.67,3.47,3.47,0,0,0,2.58,1.08,3.35,3.35,0,0,0,2.46-1.08,3.5,3.5,0,0,0,1.06-2.53,3.7,3.7,0,0,0-1.05-2.65A3.35,3.35,0,0,0,28.18,14a3.59,3.59,0,0,0-3.6,3.62Zm7.06,5.32V21.6A5,5,0,0,1,30,22.74a4.74,4.74,0,0,1-1.9.39,5.31,5.31,0,0,1-3.93-1.58,5.39,5.39,0,0,1-1.56-4,5.69,5.69,0,0,1,.39-2.1,5.28,5.28,0,0,1,1.12-1.75,5.17,5.17,0,0,1,1.73-1.23,5.46,5.46,0,0,1,2.14-.4,5.18,5.18,0,0,1,5.54,5v5.81Z"/><path class="cls-1" d="M44.7,19.25c0,1.33-1.06,3.87-4.65,3.87A3.89,3.89,0,0,1,37,21.9a5.06,5.06,0,0,1-1.09-3.46v-6h1.89v5.5a4.42,4.42,0,0,0,.6,2.55,2.07,2.07,0,0,0,1.8.85,2.52,2.52,0,0,0,1.33-.35,2.47,2.47,0,0,0,.93-1,3.15,3.15,0,0,0,.3-1,12.36,12.36,0,0,0,.09-1.79V12.39H44.7v6.86Z"/><polygon class="cls-1" points="47.19 22.89 47.19 8.99 49.06 8.99 49.06 22.89 47.19 22.89 47.19 22.89"/><path class="cls-2" d="M52.85,17.63a3.66,3.66,0,0,0,1,2.63,3.29,3.29,0,0,0,2.49,1,3.22,3.22,0,0,0,2.45-1.05,3.71,3.71,0,0,0,1-2.64,3.67,3.67,0,0,0-1-2.63,3.43,3.43,0,0,0-4.93,0,3.68,3.68,0,0,0-1,2.64Zm-2,0a5.69,5.69,0,0,1,.38-2.08,5.31,5.31,0,0,1,1.11-1.74,5.71,5.71,0,0,1,1.78-1.31,4.88,4.88,0,0,1,2.06-.46,5.31,5.31,0,0,1,3.89,1.62,5.72,5.72,0,0,1,1.19,1.78,5.26,5.26,0,0,1,.41,2.05,5.88,5.88,0,0,1-.38,2.1,5.62,5.62,0,0,1-2.88,3.12,5.08,5.08,0,0,1-2.12.45,5.37,5.37,0,0,1-2.13-.42,5.24,5.24,0,0,1-1.75-1.23,5.68,5.68,0,0,1-1.15-1.8,5.54,5.54,0,0,1-.42-2.1Z"/><path class="cls-2" d="M64.89,17.63a3.67,3.67,0,0,0,1,2.63,3.29,3.29,0,0,0,2.49,1,3.22,3.22,0,0,0,2.45-1.05,3.7,3.7,0,0,0,1-2.64,3.66,3.66,0,0,0-1-2.63,3.43,3.43,0,0,0-4.93,0,3.69,3.69,0,0,0-1,2.64Zm-2,0a5.69,5.69,0,0,1,.38-2.08,5.28,5.28,0,0,1,1.11-1.74,5.7,5.7,0,0,1,1.79-1.31,4.87,4.87,0,0,1,2.06-.46,5.3,5.3,0,0,1,3.89,1.62,5.65,5.65,0,0,1,1.19,1.78,5.26,5.26,0,0,1,.42,2.05,5.89,5.89,0,0,1-.39,2.1,5.6,5.6,0,0,1-2.88,3.12,5.08,5.08,0,0,1-2.12.45,5.38,5.38,0,0,1-2.13-.42,5.23,5.23,0,0,1-1.75-1.23,5.68,5.68,0,0,1-1.15-1.8,5.53,5.53,0,0,1-.41-2.1Z"/><path class="cls-2" d="M75.24,22.89V12.39h1.87v10.5Zm1.87-11.73H75.24V9h1.87v2.17Z"/><path class="cls-1" d="M81,17.57A3.67,3.67,0,0,0,82,20.25a3.47,3.47,0,0,0,2.58,1.08,3.34,3.34,0,0,0,2.46-1.08,3.72,3.72,0,0,0,1-2.65A3.58,3.58,0,0,0,84.58,14,3.59,3.59,0,0,0,81,17.57Zm3.54,5.55a5.31,5.31,0,0,1-3.93-1.58,5.39,5.39,0,0,1-1.57-4,5.69,5.69,0,0,1,.39-2.1,5.31,5.31,0,0,1,1.12-1.75,5.17,5.17,0,0,1,1.73-1.23,5.47,5.47,0,0,1,2.14-.4,5.07,5.07,0,0,1,2,.38,5.14,5.14,0,0,1,1.68,1.15V9H90v9.08a5.15,5.15,0,0,1-5.43,5.05Z"/><path class="cls-1" d="M99.77,16.64a3.83,3.83,0,0,0-1.15-2,2.89,2.89,0,0,0-2-.71,3,3,0,0,0-2,.73,3.74,3.74,0,0,0-1.18,2Zm-6.37,1.7a3.62,3.62,0,0,0,1.12,2.13,3,3,0,0,0,2.12.82,3,3,0,0,0,1.6-.45,3.23,3.23,0,0,0,1.16-1.27h2a6,6,0,0,1-1.91,2.67,4.6,4.6,0,0,1-2.85.93,4.81,4.81,0,0,1-2-.41A4.94,4.94,0,0,1,93,21.52a5.7,5.7,0,0,1-1.08-1.8,5.82,5.82,0,0,1-.39-2.09,6,6,0,0,1,.35-2.07,5.62,5.62,0,0,1,1-1.76,5,5,0,0,1,1.66-1.29,4.69,4.69,0,0,1,2-.43,4.77,4.77,0,0,1,2.42.64,5.27,5.27,0,0,1,1.85,1.8,5.59,5.59,0,0,1,.64,1.57,8.39,8.39,0,0,1,.21,2v.3Z"/><path class="cls-1" d="M110.3,19.88a3,3,0,0,0-.57-1.88,4.11,4.11,0,0,0-2-1.18l-.79-.26c-1.22-.39-1.84-.9-1.84-1.53a1.2,1.2,0,0,1,.42-.93,1.53,1.53,0,0,1,1-.37,1.67,1.67,0,0,1,1.1.35,1.36,1.36,0,0,1,.47.88h1.93a2.91,2.91,0,0,0-1-2,3.63,3.63,0,0,0-2.43-.77,3.67,3.67,0,0,0-2.48.88,2.71,2.71,0,0,0-1,2.11,2.64,2.64,0,0,0,1.24,2.25,9.79,9.79,0,0,0,1.63.66c.32.1.58.18.76.25,1,.39,1.54.72,1.54,1.67a1.56,1.56,0,0,1-1.66,1.53A1.6,1.6,0,0,1,105,19.58h-1.88c-.22,1.9,1.62,3.49,3.5,3.49,2.87,0,3.63-1.88,3.63-3.19Z"/><path class="cls-1" d="M112,22.89V12.39h1.87v10.5Zm1.87-11.73H112V9h1.87v2.17Z"/><path class="cls-1" d="M117.78,17.57a3.68,3.68,0,0,0,1.05,2.67,3.48,3.48,0,0,0,2.58,1.08,3.34,3.34,0,0,0,2.46-1.08,3.5,3.5,0,0,0,1.06-2.53,3.7,3.7,0,0,0-1.05-2.65,3.35,3.35,0,0,0-2.51-1.1,3.59,3.59,0,0,0-3.6,3.62Zm-1.27,6.16h2a3,3,0,0,0,1.15,1.12,3.36,3.36,0,0,0,1.63.39,3.5,3.5,0,0,0,2.57-1,3.41,3.41,0,0,0,1-2.54V21.6a5,5,0,0,1-1.62,1.14,4.73,4.73,0,0,1-1.9.39,5.31,5.31,0,0,1-3.93-1.58,5.39,5.39,0,0,1-1.56-4,5.65,5.65,0,0,1,.39-2.1,5.28,5.28,0,0,1,1.12-1.75,5.16,5.16,0,0,1,1.73-1.23,5.46,5.46,0,0,1,2.14-.4,5.3,5.3,0,0,1,5.54,4.8v4.23a6.11,6.11,0,0,1-1.42,4.29A5,5,0,0,1,121.42,27a5.42,5.42,0,0,1-3.08-.85,4.63,4.63,0,0,1-1.82-2.41Z"/><path class="cls-1" d="M136.33,13.43a4.74,4.74,0,0,0-6.33,0,5,5,0,0,0-1.1,3.47v6h1.9V17.32a4,4,0,0,1,.62-2.48,2.29,2.29,0,0,1,3.49,0,4,4,0,0,1,.62,2.48v5.57h1.9v-6a5,5,0,0,0-1.1-3.47Z"/></svg>