<?xml version="1.0" encoding="UTF-8" standalone="no"?>
<svg
   id="Layer_1"
   data-name="Layer 1"
   viewBox="0 0 184.68681 18.129998"
   version="1.1"
   sodipodi:docname="paulooidev-wordmark.svg"
   width="184.68681"
   height="18.129999"
   inkscape:version="1.1.2 (0a00cf5339, 2022-02-04)"
   xmlns:inkscape="http://www.inkscape.org/namespaces/inkscape"
   xmlns:sodipodi="http://sodipodi.sourceforge.net/DTD/sodipodi-0.dtd"
   xmlns="http://www.w3.org/2000/svg"
   xmlns:svg="http://www.w3.org/2000/svg"
   xmlns:rdf="http://www.w3.org/1999/02/22-rdf-syntax-ns#"
   xmlns:cc="http://creativecommons.org/ns#"
   xmlns:dc="http://purl.org/dc/elements/1.1/">
  <sodipodi:namedview
     id="namedview153"
     pagecolor="#ffffff"
     bordercolor="#666666"
     borderopacity="1.0"
     inkscape:pageshadow="2"
     inkscape:pageopacity="0.0"
     inkscape:pagecheckerboard="false"
     showgrid="false"
     fit-margin-top="0"
     fit-margin-left="0"
     fit-margin-right="0"
     fit-margin-bottom="0"
     borderlayer="true"
     inkscape:zoom="5.64"
     inkscape:cx="41.843972"
     inkscape:cy="17.907801"
     inkscape:window-width="1366"
     inkscape:window-height="710"
     inkscape:window-x="0"
     inkscape:window-y="0"
     inkscape:window-maximized="1"
     inkscape:current-layer="Layer_1" />
  <defs
     id="defs107">
    <style
       id="style105">.cls-1{fill:#231f20;}.cls-2{fill:#ad2241;}</style>
  </defs>
  <title
     id="title109">PaulOoiDev-wordmark</title>
  <g
     id="Paul"
     transform="translate(-10.313187,-8.87)">
    <path
       class="cls-1"
       d="m 12.15,17.57 a 3.71,3.71 0 0 0 1,2.66 3.33,3.33 0 0 0 2.49,1.09 3.6,3.6 0 0 0 3.6,-3.61 3.65,3.65 0 0 0 -1,-2.71 3.44,3.44 0 0 0 -2.57,-1 3.35,3.35 0 0 0 -2.45,1 3.5,3.5 0 0 0 -1.07,2.53 z m 0.06,4.05 V 27 h -1.89 v -9.2 a 5.37,5.37 0 0 1 5.43,-5.64 5.38,5.38 0 0 1 5.51,5.53 5.66,5.66 0 0 1 -0.39,2.09 5.36,5.36 0 0 1 -1.13,1.76 5,5 0 0 1 -1.74,1.23 5.55,5.55 0 0 1 -2.14,0.4 4.93,4.93 0 0 1 -2,-0.39 5.18,5.18 0 0 1 -1.68,-1.16 z"
       id="path111" />
    <path
       class="cls-1"
       d="m 24.58,17.57 a 3.7,3.7 0 0 0 1.06,2.68 3.49,3.49 0 0 0 2.58,1.07 3.36,3.36 0 0 0 2.46,-1.08 3.49,3.49 0 0 0 1.06,-2.53 3.7,3.7 0 0 0 -1,-2.65 3.33,3.33 0 0 0 -2.56,-1.06 3.6,3.6 0 0 0 -3.6,3.61 z m 7.07,5.32 V 21.6 a 5.2,5.2 0 0 1 -1.65,1.14 4.72,4.72 0 0 1 -1.9,0.39 5.37,5.37 0 0 1 -5.5,-5.54 5.68,5.68 0 0 1 0.39,-2.1 5.15,5.15 0 0 1 1.12,-1.74 4.93,4.93 0 0 1 1.73,-1.23 5.55,5.55 0 0 1 2.14,-0.4 5.19,5.19 0 0 1 5.55,5 v 5.81 z"
       id="path113" />
    <path
       class="cls-1"
       d="m 44.7,19.25 c 0,1.33 -1.06,3.88 -4.65,3.88 A 3.88,3.88 0 0 1 37,21.9 5,5 0 0 1 35.91,18.43 v -6 h 1.89 v 5.5 a 4.45,4.45 0 0 0 0.6,2.55 2.07,2.07 0 0 0 1.8,0.85 2.56,2.56 0 0 0 1.33,-0.35 2.5,2.5 0 0 0 0.93,-1 3.12,3.12 0 0 0 0.3,-1 12.54,12.54 0 0 0 0.09,-1.79 v -4.8 h 1.85 z"
       id="path115" />
    <polygon
       class="cls-1"
       points="49.06,22.89 47.19,22.89 47.19,8.99 49.06,8.99 "
       id="polygon117" />
  </g>
  <g
     id="Ooi"
     transform="translate(-10.313187,-8.87)">
    <path
       class="cls-2"
       d="m 52.85,17.63 a 3.65,3.65 0 0 0 1,2.63 3.27,3.27 0 0 0 2.48,1 3.23,3.23 0 0 0 2.45,-1.06 3.7,3.7 0 0 0 1,-2.64 3.66,3.66 0 0 0 -1,-2.63 3.43,3.43 0 0 0 -4.93,0 3.68,3.68 0 0 0 -1,2.64 z m -2,0 a 5.79,5.79 0 0 1 0.38,-2.09 5.37,5.37 0 0 1 1.11,-1.74 5.9,5.9 0 0 1 1.78,-1.31 5,5 0 0 1 2.07,-0.45 5.3,5.3 0 0 1 3.89,1.62 5.67,5.67 0 0 1 1.19,1.78 5.26,5.26 0 0 1 0.41,2.06 5.86,5.86 0 0 1 -0.38,2.1 5.47,5.47 0 0 1 -1.09,1.78 5.4,5.4 0 0 1 -1.79,1.33 5.16,5.16 0 0 1 -2.13,0.46 5.15,5.15 0 0 1 -3.87,-1.65 5.67,5.67 0 0 1 -1.15,-1.79 5.54,5.54 0 0 1 -0.42,-2.1 z"
       id="path120" />
    <path
       class="cls-2"
       d="m 64.89,17.63 a 3.65,3.65 0 0 0 1,2.63 3.41,3.41 0 0 0 4.93,0 3.7,3.7 0 0 0 1,-2.64 3.66,3.66 0 0 0 -1,-2.63 3.43,3.43 0 0 0 -4.93,0 3.68,3.68 0 0 0 -1,2.64 z m -2,0 a 5.79,5.79 0 0 1 0.38,-2.09 5.37,5.37 0 0 1 1.11,-1.74 5.82,5.82 0 0 1 1.79,-1.31 4.9,4.9 0 0 1 2.06,-0.45 5.3,5.3 0 0 1 3.89,1.62 5.67,5.67 0 0 1 1.19,1.78 5.26,5.26 0 0 1 0.41,2.06 5.86,5.86 0 0 1 -0.38,2.1 5.62,5.62 0 0 1 -1.04,1.8 5.54,5.54 0 0 1 -1.8,1.33 5.16,5.16 0 0 1 -2.13,0.46 5.33,5.33 0 0 1 -2.13,-0.42 5.22,5.22 0 0 1 -1.74,-1.23 5.75,5.75 0 0 1 -1.57,-3.89 z"
       id="path122" />
    <path
       class="cls-2"
       d="m 75.24,22.89 v -10.5 h 1.87 v 10.5 z M 77.11,11.16 H 75.24 V 9 h 1.87 v 2.17 z"
       id="path124" />
  </g>
  <g
     id="Development"
     transform="translate(-10.313187,-8.87)">
    <path
       class="cls-1"
       d="m 81,17.57 a 3.69,3.69 0 0 0 1,2.68 3.52,3.52 0 0 0 2.59,1.07 3.35,3.35 0 0 0 2.45,-1.08 3.72,3.72 0 0 0 1,-2.65 A 3.59,3.59 0 0 0 84.58,14 3.59,3.59 0 0 0 81,17.57 Z m 3.54,5.56 a 5.31,5.31 0 0 1 -3.93,-1.58 5.37,5.37 0 0 1 -1.57,-4 5.68,5.68 0 0 1 0.39,-2.1 5.31,5.31 0 0 1 1.12,-1.74 5.11,5.11 0 0 1 1.73,-1.23 5.57,5.57 0 0 1 2.15,-0.4 5,5 0 0 1 2,0.39 5.06,5.06 0 0 1 1.67,1.15 V 9 H 90 v 9.09 a 5.15,5.15 0 0 1 -5.43,5.05 z"
       id="path127" />
    <path
       class="cls-1"
       d="m 99.77,16.64 a 3.76,3.76 0 0 0 -1.15,-2 2.9,2.9 0 0 0 -2,-0.71 3,3 0 0 0 -2,0.73 3.7,3.7 0 0 0 -1.18,2 z m -6.37,1.7 a 3.6,3.6 0 0 0 1.12,2.13 3.09,3.09 0 0 0 2.13,0.82 3,3 0 0 0 1.6,-0.45 3.25,3.25 0 0 0 1.16,-1.27 h 2 a 6,6 0 0 1 -1.91,2.67 4.6,4.6 0 0 1 -2.85,0.93 4.91,4.91 0 0 1 -2,-0.41 5.05,5.05 0 0 1 -1.65,-1.24 5.49,5.49 0 0 1 -1.08,-1.79 5.71,5.71 0 0 1 -0.4,-2.1 5.85,5.85 0 0 1 0.36,-2.07 5.72,5.72 0 0 1 1,-1.76 5.08,5.08 0 0 1 1.67,-1.29 4.66,4.66 0 0 1 2,-0.43 4.74,4.74 0 0 1 2.42,0.64 5.3,5.3 0 0 1 1.85,1.8 5.57,5.57 0 0 1 0.64,1.57 8.79,8.79 0 0 1 0.2,1.95 v 0.3 z"
       id="path129" />
    <path
       class="cls-1"
       d="m 120.67,16.64 a 3.76,3.76 0 0 0 -1.15,-2 2.9,2.9 0 0 0 -2,-0.71 3,3 0 0 0 -2,0.73 3.64,3.64 0 0 0 -1.18,2 z m -6.37,1.7 a 3.6,3.6 0 0 0 1.12,2.13 3.06,3.06 0 0 0 2.12,0.82 3,3 0 0 0 1.61,-0.45 3.15,3.15 0 0 0 1.15,-1.27 h 2 a 6.09,6.09 0 0 1 -1.91,2.67 4.6,4.6 0 0 1 -2.86,0.93 4.87,4.87 0 0 1 -2,-0.41 5.05,5.05 0 0 1 -1.64,-1.24 5.69,5.69 0 0 1 -1.09,-1.79 5.91,5.91 0 0 1 -0.39,-2.1 5.85,5.85 0 0 1 0.36,-2.07 5.72,5.72 0 0 1 1,-1.76 5.08,5.08 0 0 1 1.67,-1.29 4.66,4.66 0 0 1 2,-0.43 4.74,4.74 0 0 1 2.42,0.64 5.3,5.3 0 0 1 1.85,1.8 5.89,5.89 0 0 1 0.64,1.57 8.79,8.79 0 0 1 0.2,1.95 v 0.3 z"
       id="path131" />
    <path
       class="cls-1"
       d="m 176.48,16.64 a 3.76,3.76 0 0 0 -1.15,-2 2.88,2.88 0 0 0 -2,-0.71 3,3 0 0 0 -2,0.73 3.7,3.7 0 0 0 -1.18,2 z m -6.37,1.7 a 3.65,3.65 0 0 0 1.12,2.13 3.09,3.09 0 0 0 2.13,0.82 3,3 0 0 0 1.6,-0.45 3.25,3.25 0 0 0 1.16,-1.27 h 2 a 6,6 0 0 1 -1.91,2.67 4.6,4.6 0 0 1 -2.85,0.93 4.91,4.91 0 0 1 -2,-0.41 5.05,5.05 0 0 1 -1.64,-1.24 5.91,5.91 0 0 1 -1.47,-3.89 5.84,5.84 0 0 1 0.35,-2.07 5.75,5.75 0 0 1 1,-1.76 5,5 0 0 1 1.66,-1.29 4.92,4.92 0 0 1 4.44,0.21 5.22,5.22 0 0 1 1.85,1.8 5.57,5.57 0 0 1 0.64,1.57 8.76,8.76 0 0 1 0.21,1.95 v 0.3 z"
       id="path133" />
    <path
       class="cls-1"
       d="m 141.47,17.55 a 3.71,3.71 0 0 0 1.05,2.66 3.32,3.32 0 0 0 2.49,1.1 3.62,3.62 0 0 0 3.6,-3.62 A 3.66,3.66 0 0 0 147.56,15 3.45,3.45 0 0 0 145,13.94 3.33,3.33 0 0 0 142.54,15 a 3.5,3.5 0 0 0 -1.07,2.53 z m 0.06,4.05 V 27 h -1.89 v -9.22 a 5.4702765,5.4702765 0 1 1 10.94,-0.11 5.47,5.47 0 0 1 -0.4,2.09 5.33,5.33 0 0 1 -1.12,1.76 5.11,5.11 0 0 1 -1.73,1.23 5.39,5.39 0 0 1 -2.15,0.4 5,5 0 0 1 -2,-0.39 5.25,5.25 0 0 1 -1.67,-1.16 z"
       id="path135" />
    <path
       class="cls-1"
       d="m 129.61,17.67 a 3.65,3.65 0 0 0 1,2.63 3.27,3.27 0 0 0 2.48,1.05 3.2,3.2 0 0 0 2.45,-1.06 3.7,3.7 0 0 0 1,-2.64 3.66,3.66 0 0 0 -1,-2.63 3.43,3.43 0 0 0 -4.93,0 3.69,3.69 0 0 0 -1,2.64 z m -2,0 a 5.69,5.69 0 0 1 0.38,-2.08 5.31,5.31 0 0 1 1.11,-1.75 5.74,5.74 0 0 1 1.79,-1.3 4.8,4.8 0 0 1 2.11,-0.44 5.49,5.49 0 0 1 2.12,0.41 5.37,5.37 0 0 1 1.77,1.21 5.51,5.51 0 0 1 1.19,1.78 5.27,5.27 0 0 1 0.42,2.06 5.83,5.83 0 0 1 -0.39,2.1 5.62,5.62 0 0 1 -1.11,1.78 5.54,5.54 0 0 1 -1.8,1.33 5,5 0 0 1 -2.13,0.46 5.28,5.28 0 0 1 -2.12,-0.42 5,5 0 0 1 -1.75,-1.23 5.67,5.67 0 0 1 -1.15,-1.79 5.54,5.54 0 0 1 -0.42,-2.1 z"
       id="path137" />
    <polygon
       class="cls-1"
       points="126.24,22.77 124.37,22.77 124.37,8.87 126.24,8.87 "
       id="polygon139" />
    <path
       class="cls-1"
       d="m 187.63,13.29 a 4.74,4.74 0 0 0 -6.33,0 5,5 0 0 0 -1.1,3.47 v 6 h 1.89 v -5.59 a 4,4 0 0 1 0.63,-2.47 2.28,2.28 0 0 1 3.49,0 4,4 0 0 1 0.62,2.47 v 5.58 h 1.9 v -6 a 5,5 0 0 0 -1.1,-3.47 z"
       id="path141" />
    <path
       class="cls-1"
       d="m 107.65,22.76 h -1.39 l -3.87,-10.2 h 2 L 107,20 l 2.76,-7.45 h 1.94 z"
       id="path143" />
    <path
       class="cls-1"
       d="m 165.69,13.29 a 4.74,4.74 0 0 0 -6.33,0 5,5 0 0 0 -1.1,3.47 v 6 h 1.9 v -5.59 a 4,4 0 0 1 0.62,-2.47 2.28,2.28 0 0 1 3.49,0 4,4 0 0 1 0.62,2.47 v 5.58 h 1.9 v -6 a 5,5 0 0 0 -1.1,-3.47 z"
       id="path145" />
    <path
       class="cls-1"
       d="m 159.06,13.29 a 4.73,4.73 0 0 0 -6.32,0 5,5 0 0 0 -1.11,3.47 v 6 h 1.9 v -5.59 a 4,4 0 0 1 0.62,-2.47 2.3,2.3 0 0 1 3.5,0 4,4 0 0 1 0.62,2.47 v 5.58 h 1.89 v -6 a 5,5 0 0 0 -1.1,-3.47 z"
       id="path147" />
    <path
       class="cls-1"
       d="m 191.73,22.76 v -8.53 h -1.45 v -1.67 h 1.45 v -3.3 h 1.83 v 3.3 H 195 v 1.67 h -1.44 v 8.53 z"
       id="path149" />
  </g>
  <metadata
     id="metadata235">
    <rdf:RDF>
      <cc:Work
         rdf:about="">
        <dc:title>PaulOoiDev-wordmark</dc:title>
      </cc:Work>
    </rdf:RDF>
  </metadata>
</svg>
