<svg id="Layer_1" data-name="Layer 1" xmlns="http://www.w3.org/2000/svg" viewBox="0 0 204.58 35.99"><defs><style>.cls-1{fill:#231f20;}.cls-2{fill:#ad2241;}</style></defs><title>PaulOoiDev-wordmark</title><g id="Paul"><path class="cls-1" d="M12.15,17.57a3.71,3.71,0,0,0,1,2.66,3.33,3.33,0,0,0,2.49,1.09,3.6,3.6,0,0,0,3.6-3.61A3.65,3.65,0,0,0,18.24,15,3.44,3.44,0,0,0,15.67,14,3.35,3.35,0,0,0,13.22,15a3.5,3.5,0,0,0-1.07,2.53Zm.06,4.05V27H10.32V17.8a5.37,5.37,0,0,1,5.43-5.64,5.38,5.38,0,0,1,5.51,5.53,5.66,5.66,0,0,1-.39,2.09,5.36,5.36,0,0,1-1.13,1.76A5,5,0,0,1,18,22.77a5.55,5.55,0,0,1-2.14.4,4.93,4.93,0,0,1-2-.39,5.18,5.18,0,0,1-1.68-1.16Z"/><path class="cls-1" d="M24.58,17.57a3.7,3.7,0,0,0,1.06,2.68,3.49,3.49,0,0,0,2.58,1.07,3.36,3.36,0,0,0,2.46-1.08,3.49,3.49,0,0,0,1.06-2.53,3.7,3.7,0,0,0-1-2.65A3.33,3.33,0,0,0,28.18,14a3.6,3.6,0,0,0-3.6,3.61Zm7.07,5.32V21.6A5.2,5.2,0,0,1,30,22.74a4.72,4.72,0,0,1-1.9.39,5.37,5.37,0,0,1-5.5-5.54,5.68,5.68,0,0,1,.39-2.1,5.15,5.15,0,0,1,1.12-1.74,4.93,4.93,0,0,1,1.73-1.23,5.55,5.55,0,0,1,2.14-.4,5.19,5.19,0,0,1,5.55,5v5.81Z"/><path class="cls-1" d="M44.7,19.25c0,1.33-1.06,3.88-4.65,3.88A3.88,3.88,0,0,1,37,21.9a5,5,0,0,1-1.09-3.47v-6h1.89v5.5a4.45,4.45,0,0,0,.6,2.55,2.07,2.07,0,0,0,1.8.85,2.56,2.56,0,0,0,1.33-.35,2.5,2.5,0,0,0,.93-1,3.12,3.12,0,0,0,.3-1,12.54,12.54,0,0,0,.09-1.79V12.39H44.7v6.86Z"/><polygon class="cls-1" points="47.19 22.89 47.19 8.99 49.06 8.99 49.06 22.89 47.19 22.89 47.19 22.89"/></g><g id="Ooi"><path class="cls-2" d="M52.85,17.63a3.65,3.65,0,0,0,1,2.63,3.27,3.27,0,0,0,2.48,1,3.23,3.23,0,0,0,2.45-1.06,3.7,3.7,0,0,0,1-2.64,3.66,3.66,0,0,0-1-2.63,3.43,3.43,0,0,0-4.93,0,3.68,3.68,0,0,0-1,2.64Zm-2,0a5.79,5.79,0,0,1,.38-2.09,5.37,5.37,0,0,1,1.11-1.74,5.9,5.9,0,0,1,1.78-1.31,5,5,0,0,1,2.07-.45,5.3,5.3,0,0,1,3.89,1.62,5.67,5.67,0,0,1,1.19,1.78,5.26,5.26,0,0,1,.41,2.06,5.86,5.86,0,0,1-.38,2.1,5.47,5.47,0,0,1-1.09,1.78,5.4,5.4,0,0,1-1.79,1.33,5.16,5.16,0,0,1-2.13.46,5.15,5.15,0,0,1-3.87-1.65,5.67,5.67,0,0,1-1.15-1.79,5.54,5.54,0,0,1-.42-2.1Z"/><path class="cls-2" d="M64.89,17.63a3.65,3.65,0,0,0,1,2.63,3.41,3.41,0,0,0,4.93,0,3.7,3.7,0,0,0,1-2.64,3.66,3.66,0,0,0-1-2.63,3.43,3.43,0,0,0-4.93,0,3.68,3.68,0,0,0-1,2.64Zm-2,0a5.79,5.79,0,0,1,.38-2.09,5.37,5.37,0,0,1,1.11-1.74,5.82,5.82,0,0,1,1.79-1.31,4.9,4.9,0,0,1,2.06-.45,5.3,5.3,0,0,1,3.89,1.62,5.67,5.67,0,0,1,1.19,1.78,5.26,5.26,0,0,1,.41,2.06,5.86,5.86,0,0,1-.38,2.1A5.62,5.62,0,0,1,72.3,21.4a5.54,5.54,0,0,1-1.8,1.33,5.16,5.16,0,0,1-2.13.46,5.33,5.33,0,0,1-2.13-.42,5.22,5.22,0,0,1-1.74-1.23,5.75,5.75,0,0,1-1.57-3.89Z"/><path class="cls-2" d="M75.24,22.89V12.39h1.87v10.5Zm1.87-11.73H75.24V9h1.87v2.17Z"/></g><g id="Development"><path class="cls-1" d="M81,17.57a3.69,3.69,0,0,0,1,2.68,3.52,3.52,0,0,0,2.59,1.07,3.35,3.35,0,0,0,2.45-1.08,3.72,3.72,0,0,0,1-2.65A3.59,3.59,0,0,0,84.58,14,3.59,3.59,0,0,0,81,17.57Zm3.54,5.56a5.31,5.31,0,0,1-3.93-1.58,5.37,5.37,0,0,1-1.57-4,5.68,5.68,0,0,1,.39-2.1,5.31,5.31,0,0,1,1.12-1.74,5.11,5.11,0,0,1,1.73-1.23,5.57,5.57,0,0,1,2.15-.4,5,5,0,0,1,2,.39,5.06,5.06,0,0,1,1.67,1.15V9H90v9.09a5.15,5.15,0,0,1-5.43,5.05Z"/><path class="cls-1" d="M99.77,16.64a3.76,3.76,0,0,0-1.15-2,2.9,2.9,0,0,0-2-.71,3,3,0,0,0-2,.73,3.7,3.7,0,0,0-1.18,2Zm-6.37,1.7a3.6,3.6,0,0,0,1.12,2.13,3.09,3.09,0,0,0,2.13.82,3,3,0,0,0,1.6-.45,3.25,3.25,0,0,0,1.16-1.27h2a6,6,0,0,1-1.91,2.67,4.6,4.6,0,0,1-2.85.93,4.91,4.91,0,0,1-2-.41A5.05,5.05,0,0,1,93,21.52a5.49,5.49,0,0,1-1.08-1.79,5.71,5.71,0,0,1-.4-2.1,5.85,5.85,0,0,1,.36-2.07,5.72,5.72,0,0,1,1-1.76,5.08,5.08,0,0,1,1.67-1.29,4.66,4.66,0,0,1,2-.43,4.74,4.74,0,0,1,2.42.64,5.3,5.3,0,0,1,1.85,1.8,5.57,5.57,0,0,1,.64,1.57,8.79,8.79,0,0,1,.2,1.95v.3Z"/><path class="cls-1" d="M120.67,16.64a3.76,3.76,0,0,0-1.15-2,2.9,2.9,0,0,0-2-.71,3,3,0,0,0-2,.73,3.64,3.64,0,0,0-1.18,2Zm-6.37,1.7a3.6,3.6,0,0,0,1.12,2.13,3.06,3.06,0,0,0,2.12.82,3,3,0,0,0,1.61-.45,3.15,3.15,0,0,0,1.15-1.27h2a6.09,6.09,0,0,1-1.91,2.67,4.6,4.6,0,0,1-2.86.93,4.87,4.87,0,0,1-2-.41,5.05,5.05,0,0,1-1.64-1.24,5.69,5.69,0,0,1-1.09-1.79,5.91,5.91,0,0,1-.39-2.1,5.85,5.85,0,0,1,.36-2.07,5.72,5.72,0,0,1,1-1.76,5.08,5.08,0,0,1,1.67-1.29,4.66,4.66,0,0,1,2-.43,4.74,4.74,0,0,1,2.42.64,5.3,5.3,0,0,1,1.85,1.8,5.89,5.89,0,0,1,.64,1.57,8.79,8.79,0,0,1,.2,1.95v.3Z"/><path class="cls-1" d="M176.48,16.64a3.76,3.76,0,0,0-1.15-2,2.88,2.88,0,0,0-2-.71,3,3,0,0,0-2,.73,3.7,3.7,0,0,0-1.18,2Zm-6.37,1.7a3.65,3.65,0,0,0,1.12,2.13,3.09,3.09,0,0,0,2.13.82,3,3,0,0,0,1.6-.45,3.25,3.25,0,0,0,1.16-1.27h2a6,6,0,0,1-1.91,2.67,4.6,4.6,0,0,1-2.85.93,4.91,4.91,0,0,1-2-.41,5.05,5.05,0,0,1-1.64-1.24,5.91,5.91,0,0,1-1.47-3.89,5.84,5.84,0,0,1,.35-2.07,5.75,5.75,0,0,1,1-1.76,5,5,0,0,1,1.66-1.29,4.92,4.92,0,0,1,4.44.21,5.22,5.22,0,0,1,1.85,1.8,5.57,5.57,0,0,1,.64,1.57,8.76,8.76,0,0,1,.21,1.95v.3Z"/><path class="cls-1" d="M141.47,17.55a3.71,3.71,0,0,0,1.05,2.66,3.32,3.32,0,0,0,2.49,1.1,3.62,3.62,0,0,0,3.6-3.62A3.66,3.66,0,0,0,147.56,15,3.45,3.45,0,0,0,145,13.94,3.33,3.33,0,0,0,142.54,15a3.5,3.5,0,0,0-1.07,2.53Zm.06,4.05V27h-1.89V17.78a5.47,5.47,0,1,1,10.94-.11,5.47,5.47,0,0,1-.4,2.09,5.33,5.33,0,0,1-1.12,1.76,5.11,5.11,0,0,1-1.73,1.23,5.39,5.39,0,0,1-2.15.4,5,5,0,0,1-2-.39,5.25,5.25,0,0,1-1.67-1.16Z"/><path class="cls-1" d="M129.61,17.67a3.65,3.65,0,0,0,1,2.63,3.27,3.27,0,0,0,2.48,1.05,3.2,3.2,0,0,0,2.45-1.06,3.7,3.7,0,0,0,1-2.64,3.66,3.66,0,0,0-1-2.63,3.43,3.43,0,0,0-4.93,0,3.69,3.69,0,0,0-1,2.64Zm-2,0a5.69,5.69,0,0,1,.38-2.08,5.31,5.31,0,0,1,1.11-1.75,5.74,5.74,0,0,1,1.79-1.3A4.8,4.8,0,0,1,133,12.1a5.49,5.49,0,0,1,2.12.41,5.37,5.37,0,0,1,1.77,1.21,5.51,5.51,0,0,1,1.19,1.78,5.27,5.27,0,0,1,.42,2.06,5.83,5.83,0,0,1-.39,2.1A5.62,5.62,0,0,1,137,21.44a5.54,5.54,0,0,1-1.8,1.33,5,5,0,0,1-2.13.46,5.28,5.28,0,0,1-2.12-.42,5,5,0,0,1-1.75-1.23,5.67,5.67,0,0,1-1.15-1.79,5.54,5.54,0,0,1-.42-2.1Z"/><polygon class="cls-1" points="124.37 22.77 124.37 8.87 126.24 8.87 126.24 22.77 124.37 22.77 124.37 22.77"/><path class="cls-1" d="M187.63,13.29a4.74,4.74,0,0,0-6.33,0,5,5,0,0,0-1.1,3.47v6h1.89V17.17a4,4,0,0,1,.63-2.47,2.28,2.28,0,0,1,3.49,0,4,4,0,0,1,.62,2.47v5.58h1.9v-6a5,5,0,0,0-1.1-3.47Z"/><path class="cls-1" d="M107.65,22.76h-1.39l-3.87-10.2h2L107,20l2.76-7.45h1.94Z"/><path class="cls-1" d="M165.69,13.29a4.74,4.74,0,0,0-6.33,0,5,5,0,0,0-1.1,3.47v6h1.9V17.17a4,4,0,0,1,.62-2.47,2.28,2.28,0,0,1,3.49,0,4,4,0,0,1,.62,2.47v5.58h1.9v-6a5,5,0,0,0-1.1-3.47Z"/><path class="cls-1" d="M159.06,13.29a4.73,4.73,0,0,0-6.32,0,5,5,0,0,0-1.11,3.47v6h1.9V17.17a4,4,0,0,1,.62-2.47,2.3,2.3,0,0,1,3.5,0,4,4,0,0,1,.62,2.47v5.58h1.89v-6a5,5,0,0,0-1.1-3.47Z"/><path class="cls-1" d="M191.73,22.76V14.23h-1.45V12.56h1.45V9.26h1.83v3.3H195v1.67h-1.44v8.53Z"/></g></svg>